<svg width="49" height="50" viewBox="0 0 49 50" fill="none" xmlns="http://www.w3.org/2000/svg">
<path fill-rule="evenodd" clip-rule="evenodd" d="M24.5 49C37.7548 49 48.5 38.2548 48.5 25C48.5 11.7452 37.7548 1 24.5 1C11.2452 1 0.5 11.7452 0.5 25C0.5 38.2548 11.2452 49 24.5 49Z" stroke="#0ABB92"/>
<path d="M31.0336 14.7144C31.6992 14.7144 32.2624 14.9539 32.7232 15.4329C33.184 15.912 33.4144 16.4975 33.4144 17.1895V28.0482C33.4144 28.7668 33.184 29.3656 32.7232 29.8447L24.7744 38.0286L23.5072 36.7112C23.1744 36.3652 23.008 35.9261 23.008 35.3938C23.1872 34.3825 23.5584 32.4795 24.1216 29.685H15.7888C15.3536 29.685 14.9824 29.5253 14.6752 29.2059C14.368 28.8866 14.2144 28.5007 14.2144 28.0482V25.9324C14.2144 25.7993 14.2272 25.6529 14.2528 25.4932C14.2272 25.6795 14.2656 25.5465 14.368 25.094L18.0544 16.2713C18.2336 15.8455 18.5216 15.4795 18.9184 15.1735C19.3152 14.8674 19.744 14.7144 20.2048 14.7144H31.0336Z" stroke="#0ABB92"/>
</svg>
