<svg width="32" height="32" viewBox="0 0 32 32" fill="none" xmlns="http://www.w3.org/2000/svg">
<path d="M14.8668 4.53331L9.90683 12.64C9.36016 13.52 10.0002 14.6666 11.0402 14.6666H20.9468C21.9868 14.6666 22.6268 13.52 22.0802 12.64L17.1335 4.53331C16.6135 3.67998 15.3868 3.67998 14.8668 4.53331Z" fill="#00D09C"/>
<path d="M23.3335 29.3333C26.6472 29.3333 29.3335 26.647 29.3335 23.3333C29.3335 20.0195 26.6472 17.3333 23.3335 17.3333C20.0198 17.3333 17.3335 20.0195 17.3335 23.3333C17.3335 26.647 20.0198 29.3333 23.3335 29.3333Z" fill="#00D09C"/>
<path d="M5.33333 28.6667H13.3333C14.0667 28.6667 14.6667 28.0667 14.6667 27.3333V19.3333C14.6667 18.6 14.0667 18 13.3333 18H5.33333C4.6 18 4 18.6 4 19.3333V27.3333C4 28.0667 4.6 28.6667 5.33333 28.6667Z" fill="#00D09C"/>
</svg>
